<?xml version="1.0" encoding="utf-8"?>
<!-- Generator: Adobe Illustrator 18.0.0, SVG Export Plug-In . SVG Version: 6.00 Build 0)  -->
<!DOCTYPE svg PUBLIC "-//W3C//DTD SVG 1.1//EN" "http://www.w3.org/Graphics/SVG/1.1/DTD/svg11.dtd">
<svg version="1.1" id="Layer_1" xmlns="http://www.w3.org/2000/svg" xmlns:xlink="http://www.w3.org/1999/xlink" x="0px" y="0px"
	 viewBox="0 0 16 16" enable-background="new 0 0 16 16" xml:space="preserve">
<path display="none" fill="#A5EFAC" d="M3,1C1.9,1,1,1.9,1,3v10c0,1.1,0.9,2,2,2h10c1.1,0,2-0.9,2-2V3c0-1.1-0.9-2-2-2H3z M3,3h10
	v10H3V3z M6,4l2,2l2-2H6z M4,6v4l2-2L4,6z M12,6l-2,2l2,2V6z M8,10l-2,2h4L8,10z"/>
<g>
	<path fill="#A5EFAC" d="M14.8,3.1C14.8,1.9,14,1,12.9,1h-10C1.9,1,1,1.9,1,3.1v1.3h13.8V3.1z M8.4,3.6c-0.5,0-0.9-0.4-0.9-0.9
		s0.4-0.9,0.9-0.9s0.9,0.4,0.9,0.9S8.9,3.6,8.4,3.6z M10.7,3.6c-0.5,0-0.9-0.4-0.9-0.9s0.4-0.9,0.9-0.9c0.5,0,0.9,0.4,0.9,0.9
		S11.2,3.6,10.7,3.6z M13.1,3.6c-0.5,0-0.9-0.4-0.9-0.9s0.4-0.9,0.9-0.9c0.5,0,0.9,0.4,0.9,0.9S13.6,3.6,13.1,3.6z"/>
	<path fill="#A5EFAC" d="M1,6.1v7.3c0,1,0.9,1.7,1.9,1.7h10c1.1,0,1.9-0.8,1.9-1.7V6.1H1z"/>
</g>
</svg>
